<svg width="12" height="12" viewBox="0 0 12 12" fill="none" xmlns="http://www.w3.org/2000/svg">
<g clip-path="url(#clip0_1072_10849)">
<path d="M7.8467 9.23137C7.87513 9.29988 7.88259 9.37529 7.86816 9.44804C7.85372 9.5208 7.81804 9.58765 7.76561 9.64012L6.26561 11.1401C6.23078 11.175 6.18942 11.2026 6.1439 11.2215C6.09837 11.2404 6.04958 11.2501 6.0003 11.2501C5.95101 11.2501 5.90222 11.2404 5.85669 11.2215C5.81117 11.2026 5.76981 11.175 5.73498 11.1401L4.23498 9.64012C4.18248 9.58767 4.14672 9.52083 4.13222 9.44805C4.11773 9.37527 4.12515 9.29982 4.15356 9.23126C4.18197 9.1627 4.23008 9.10411 4.2918 9.06291C4.35352 9.02171 4.42608 8.99975 4.5003 8.99981H5.6253V2.99981H4.5003C4.42608 2.99987 4.35352 2.9779 4.2918 2.9367C4.23008 2.8955 4.18197 2.83691 4.15356 2.76835C4.12515 2.69979 4.11773 2.62435 4.13222 2.55157C4.14672 2.47878 4.18248 2.41194 4.23498 2.35949L5.73498 0.859494C5.76981 0.824628 5.81117 0.796968 5.85669 0.778097C5.90222 0.759225 5.95101 0.749512 6.0003 0.749512C6.04958 0.749512 6.09837 0.759225 6.1439 0.778097C6.18942 0.796968 6.23078 0.824628 6.26561 0.859494L7.76561 2.35949C7.81811 2.41194 7.85387 2.47878 7.86837 2.55157C7.88286 2.62435 7.87544 2.69979 7.84703 2.76835C7.81862 2.83691 7.77051 2.8955 7.70879 2.9367C7.64707 2.9779 7.57451 2.99987 7.5003 2.99981H6.3753V8.99981H7.5003C7.57446 8.99982 7.64696 9.02183 7.70862 9.06305C7.77028 9.10427 7.81833 9.16284 7.8467 9.23137Z" fill="white"/>
</g>
<defs>
<clipPath id="clip0_1072_10849">
<rect width="12" height="12" fill="white"/>
</clipPath>
</defs>
</svg>
