<svg width="24" height="24" viewBox="0 0 24 24" fill="none" xmlns="http://www.w3.org/2000/svg">
<path d="M21.4791 6.63937C21.3407 6.44185 21.1567 6.28059 20.9428 6.16929C20.7288 6.05799 20.4912 5.99992 20.25 6H12.75V3H14.25C14.4489 3 14.6397 2.92098 14.7803 2.78033C14.921 2.63968 15 2.44891 15 2.25C15 2.05109 14.921 1.86032 14.7803 1.71967C14.6397 1.57902 14.4489 1.5 14.25 1.5H9.75C9.55109 1.5 9.36032 1.57902 9.21967 1.71967C9.07902 1.86032 9 2.05109 9 2.25C9 2.44891 9.07902 2.63968 9.21967 2.78033C9.36032 2.92098 9.55109 3 9.75 3H11.25V6H3.75C3.50916 6.00054 3.272 6.05906 3.05856 6.17062C2.84511 6.28218 2.66167 6.44349 2.52374 6.64092C2.38581 6.83834 2.29744 7.06608 2.26611 7.30487C2.23478 7.54366 2.26141 7.78649 2.34375 8.01281L4.79906 14.7628C4.90412 15.0516 5.09533 15.3011 5.34684 15.4777C5.59835 15.6543 5.89802 15.7493 6.20531 15.75H17.7956C18.1029 15.7493 18.4026 15.6543 18.6541 15.4777C18.9056 15.3011 19.0968 15.0516 19.2019 14.7628L21.6572 8.01281C21.7401 7.78642 21.7671 7.54339 21.7361 7.30431C21.7051 7.06523 21.6169 6.83714 21.4791 6.63937ZM9.61125 14.2378C9.56672 14.246 9.52153 14.2501 9.47625 14.25C9.30077 14.2498 9.13093 14.188 8.99629 14.0754C8.86166 13.9629 8.77074 13.8067 8.73938 13.6341L7.78125 8.38406C7.74569 8.18826 7.78938 7.98635 7.90269 7.82275C8.016 7.65916 8.18966 7.54727 8.38547 7.51172C8.58127 7.47616 8.78318 7.51985 8.94678 7.63316C9.11037 7.74647 9.22226 7.92013 9.25781 8.11594L10.2122 13.3659C10.2478 13.5612 10.2045 13.7626 10.0919 13.926C9.97923 14.0895 9.8064 14.2016 9.61125 14.2378ZM16.2188 8.38406L15.2634 13.6341C15.2321 13.8067 15.1412 13.9629 15.0065 14.0754C14.8719 14.188 14.702 14.2498 14.5266 14.25C14.4813 14.2501 14.4361 14.246 14.3916 14.2378C14.1959 14.2022 14.0224 14.0904 13.9092 13.9269C13.7959 13.7634 13.7523 13.5616 13.7878 13.3659L14.7422 8.11594C14.7777 7.92013 14.8896 7.74647 15.0532 7.63316C15.2168 7.51985 15.4187 7.47616 15.6145 7.51172C15.8103 7.54727 15.984 7.65916 16.0973 7.82275C16.2106 7.98635 16.2543 8.18826 16.2188 8.38406ZM15 17.625V21.75C15 21.9489 14.921 22.1397 14.7803 22.2803C14.6397 22.421 14.4489 22.5 14.25 22.5H9.75C9.55109 22.5 9.36032 22.421 9.21967 22.2803C9.07902 22.1397 9 21.9489 9 21.75V17.625C9 17.5255 9.03951 17.4302 9.10983 17.3598C9.18016 17.2895 9.27554 17.25 9.375 17.25H14.625C14.7245 17.25 14.8198 17.2895 14.8902 17.3598C14.9605 17.4302 15 17.5255 15 17.625Z" fill="#D3D3D3"/>
</svg>
