<svg width="16" height="16" viewBox="0 0 16 16" fill="none" xmlns="http://www.w3.org/2000/svg">
<g clip-path="url(#clip0_1072_10841)">
<path d="M7 6V10C7 10.1326 6.94732 10.2598 6.85355 10.3536C6.75979 10.4473 6.63261 10.5 6.5 10.5H3C2.86739 10.5 2.74021 10.4473 2.64645 10.3536C2.55268 10.2598 2.5 10.1326 2.5 10V6C2.5 5.86739 2.55268 5.74021 2.64645 5.64645C2.74021 5.55268 2.86739 5.5 3 5.5H6.5C6.63261 5.5 6.75979 5.55268 6.85355 5.64645C6.94732 5.74021 7 5.86739 7 6ZM14 5V11C14 11.3978 13.842 11.7794 13.5607 12.0607C13.2794 12.342 12.8978 12.5 12.5 12.5H2C1.60218 12.5 1.22064 12.342 0.93934 12.0607C0.658035 11.7794 0.5 11.3978 0.5 11V5C0.5 4.60218 0.658035 4.22064 0.93934 3.93934C1.22064 3.65804 1.60218 3.5 2 3.5H12.5C12.8978 3.5 13.2794 3.65804 13.5607 3.93934C13.842 4.22064 14 4.60218 14 5ZM13 5C13 4.86739 12.9473 4.74021 12.8536 4.64645C12.7598 4.55268 12.6326 4.5 12.5 4.5H2C1.86739 4.5 1.74021 4.55268 1.64645 4.64645C1.55268 4.74021 1.5 4.86739 1.5 5V11C1.5 11.1326 1.55268 11.2598 1.64645 11.3536C1.74021 11.4473 1.86739 11.5 2 11.5H12.5C12.6326 11.5 12.7598 11.4473 12.8536 11.3536C12.9473 11.2598 13 11.1326 13 11V5ZM15.5 5.5C15.3674 5.5 15.2402 5.55268 15.1464 5.64645C15.0527 5.74021 15 5.86739 15 6V10C15 10.1326 15.0527 10.2598 15.1464 10.3536C15.2402 10.4473 15.3674 10.5 15.5 10.5C15.6326 10.5 15.7598 10.4473 15.8536 10.3536C15.9473 10.2598 16 10.1326 16 10V6C16 5.86739 15.9473 5.74021 15.8536 5.64645C15.7598 5.55268 15.6326 5.5 15.5 5.5Z" fill="white"/>
</g>
<defs>
<clipPath id="clip0_1072_10841">
<rect width="16" height="16" fill="white"/>
</clipPath>
</defs>
</svg>
