<svg width="14" height="14" viewBox="0 0 14 14" fill="none" xmlns="http://www.w3.org/2000/svg">
<path d="M7 8.75C7.9665 8.75 8.75 7.9665 8.75 7C8.75 6.0335 7.9665 5.25 7 5.25C6.0335 5.25 5.25 6.0335 5.25 7C5.25 7.9665 6.0335 8.75 7 8.75Z" stroke="#E2FF00" stroke-linecap="round" stroke-linejoin="round"/>
<path d="M9.93506 4.375C10.5814 5.09657 10.9388 6.03126 10.9388 7C10.9388 7.96874 10.5814 8.90343 9.93506 9.625" stroke="#E2FF00" stroke-linecap="round" stroke-linejoin="round"/>
<path d="M4.06494 9.625C3.41857 8.90343 3.06116 7.96874 3.06116 7C3.06116 6.03126 3.41857 5.09657 4.06494 4.375" stroke="#E2FF00" stroke-linecap="round" stroke-linejoin="round"/>
<path d="M11.375 2.71387C12.4982 3.85789 13.1274 5.39706 13.1274 7.00027C13.1274 8.60349 12.4982 10.1427 11.375 11.2867" stroke="#E2FF00" stroke-linecap="round" stroke-linejoin="round"/>
<path d="M2.62499 11.2867C1.50182 10.1427 0.872559 8.60349 0.872559 7.00027C0.872559 5.39706 1.50182 3.85789 2.62499 2.71387" stroke="#E2FF00" stroke-linecap="round" stroke-linejoin="round"/>
</svg>
