<svg width="16" height="16" viewBox="0 0 16 16" fill="none" xmlns="http://www.w3.org/2000/svg">
<path d="M13 2.5H3C2.72386 2.5 2.5 2.72386 2.5 3V13C2.5 13.2761 2.72386 13.5 3 13.5H13C13.2761 13.5 13.5 13.2761 13.5 13V3C13.5 2.72386 13.2761 2.5 13 2.5Z" stroke="#8A8A8A" stroke-linecap="round" stroke-linejoin="round"/>
<path d="M11 1.5V3.5" stroke="#8A8A8A" stroke-linecap="round" stroke-linejoin="round"/>
<path d="M5 1.5V3.5" stroke="#8A8A8A" stroke-linecap="round" stroke-linejoin="round"/>
<path d="M2.5 5.5H13.5" stroke="#8A8A8A" stroke-linecap="round" stroke-linejoin="round"/>
<path d="M8 7.8125C8.24162 7.8125 8.4375 8.00838 8.4375 8.25C8.4375 8.49162 8.24162 8.6875 8 8.6875C7.75838 8.6875 7.5625 8.49162 7.5625 8.25C7.5625 8.00838 7.75838 7.8125 8 7.8125Z" fill="#8A8A8A" stroke="#8A8A8A" stroke-width="0.125"/>
<path d="M10.75 7.8125C10.9916 7.8125 11.1875 8.00838 11.1875 8.25C11.1875 8.49162 10.9916 8.6875 10.75 8.6875C10.5084 8.6875 10.3125 8.49162 10.3125 8.25C10.3125 8.00838 10.5084 7.8125 10.75 7.8125Z" fill="#8A8A8A" stroke="#8A8A8A" stroke-width="0.125"/>
<path d="M5.25 11.25C5.52614 11.25 5.75 11.0261 5.75 10.75C5.75 10.4739 5.52614 10.25 5.25 10.25C4.97386 10.25 4.75 10.4739 4.75 10.75C4.75 11.0261 4.97386 11.25 5.25 11.25Z" fill="#8A8A8A"/>
<path d="M8 11.25C8.27614 11.25 8.5 11.0261 8.5 10.75C8.5 10.4739 8.27614 10.25 8 10.25C7.72386 10.25 7.5 10.4739 7.5 10.75C7.5 11.0261 7.72386 11.25 8 11.25Z" fill="#8A8A8A"/>
<path d="M10.75 11.25C11.0261 11.25 11.25 11.0261 11.25 10.75C11.25 10.4739 11.0261 10.25 10.75 10.25C10.4739 10.25 10.25 10.4739 10.25 10.75C10.25 11.0261 10.4739 11.25 10.75 11.25Z" fill="#8A8A8A"/>
</svg>
