<svg width="17" height="17" viewBox="0 0 17 17" fill="none" xmlns="http://www.w3.org/2000/svg">
<path d="M14.225 2.44167L13.05 3.61667C14.25 4.825 15 6.49167 15 8.33333C15 10.1014 14.2976 11.7971 13.0474 13.0474C11.7971 14.2976 10.1014 15 8.33333 15C6.56522 15 4.86953 14.2976 3.61929 13.0474C2.36905 11.7971 1.66667 10.1014 1.66667 8.33333C1.66667 4.93333 4.20833 2.13333 7.5 1.725V3.40833C5.13333 3.80833 3.33333 5.85833 3.33333 8.33333C3.33333 9.65942 3.86012 10.9312 4.7978 11.8689C5.73548 12.8065 7.00725 13.3333 8.33333 13.3333C9.65942 13.3333 10.9312 12.8065 11.8689 11.8689C12.8065 10.9312 13.3333 9.65942 13.3333 8.33333C13.3333 6.95 12.775 5.7 11.8667 4.8L10.6917 5.975C11.2917 6.58333 11.6667 7.41667 11.6667 8.33333C11.6667 9.21739 11.3155 10.0652 10.6904 10.6904C10.0652 11.3155 9.21739 11.6667 8.33333 11.6667C7.44928 11.6667 6.60143 11.3155 5.97631 10.6904C5.35119 10.0652 5 9.21739 5 8.33333C5 6.78333 6.06667 5.49167 7.5 5.11667V6.9C7 7.19167 6.66667 7.71667 6.66667 8.33333C6.66667 8.77536 6.84226 9.19928 7.15482 9.51184C7.46738 9.8244 7.89131 10 8.33333 10C8.77536 10 9.19928 9.8244 9.51184 9.51184C9.8244 9.19928 10 8.77536 10 8.33333C10 7.71667 9.66667 7.18333 9.16667 6.9V0H8.33333C7.23898 0 6.15535 0.215548 5.1443 0.634337C4.13326 1.05313 3.2146 1.66696 2.44078 2.44078C0.877974 4.00358 0 6.1232 0 8.33333C0 10.5435 0.877974 12.6631 2.44078 14.2259C3.2146 14.9997 4.13326 15.6135 5.1443 16.0323C6.15535 16.4511 7.23898 16.6667 8.33333 16.6667C10.5435 16.6667 12.6631 15.7887 14.2259 14.2259C15.7887 12.6631 16.6667 10.5435 16.6667 8.33333C16.6667 6.03333 15.7333 3.95 14.225 2.44167Z" fill="#8A8A8A"/>
</svg>
