<svg width="13" height="7" viewBox="0 0 13 7" fill="none" xmlns="http://www.w3.org/2000/svg">
<path d="M10.0625 3.0625C10.0625 3.17853 10.0164 3.28981 9.93436 3.37186C9.85231 3.45391 9.74103 3.5 9.625 3.5H2.625C2.50897 3.5 2.39769 3.45391 2.31564 3.37186C2.23359 3.28981 2.1875 3.17853 2.1875 3.0625C2.1875 2.94647 2.23359 2.83519 2.31564 2.75314C2.39769 2.67109 2.50897 2.625 2.625 2.625H9.625C9.74103 2.625 9.85231 2.67109 9.93436 2.75314C10.0164 2.83519 10.0625 2.94647 10.0625 3.0625ZM11.8125 0H0.4375C0.321468 0 0.210188 0.0460937 0.128141 0.128141C0.0460936 0.210188 0 0.321468 0 0.4375C0 0.553532 0.0460936 0.664812 0.128141 0.746859C0.210188 0.828906 0.321468 0.875 0.4375 0.875H11.8125C11.9285 0.875 12.0398 0.828906 12.1219 0.746859C12.2039 0.664812 12.25 0.553532 12.25 0.4375C12.25 0.321468 12.2039 0.210188 12.1219 0.128141C12.0398 0.0460937 11.9285 0 11.8125 0ZM7.4375 5.25H4.8125C4.69647 5.25 4.58519 5.29609 4.50314 5.37814C4.42109 5.46019 4.375 5.57147 4.375 5.6875C4.375 5.80353 4.42109 5.91481 4.50314 5.99686C4.58519 6.07891 4.69647 6.125 4.8125 6.125H7.4375C7.55353 6.125 7.66481 6.07891 7.74686 5.99686C7.82891 5.91481 7.875 5.80353 7.875 5.6875C7.875 5.57147 7.82891 5.46019 7.74686 5.37814C7.66481 5.29609 7.55353 5.25 7.4375 5.25Z" fill="white" fill-opacity="0.56"/>
</svg>
