<svg width="24" height="24" viewBox="0 0 24 24" fill="none" xmlns="http://www.w3.org/2000/svg">
<rect width="24" height="24" rx="12" fill="#1A1A1A"/>
<path d="M14.7347 10.1462C14.6389 10.0317 14.4687 10.0152 14.3524 10.1098C14.2355 10.2049 14.2178 10.3769 14.3127 10.494C14.3383 10.5259 14.3707 10.5517 14.4076 10.5693C14.4445 10.587 14.4849 10.5961 14.5258 10.5961C14.5914 10.5961 14.6573 10.5726 14.7097 10.5249C14.8189 10.4256 14.8292 10.2581 14.7347 10.1462Z" fill="#80B8FF"/>
<path d="M12.5753 15.5672C12.6834 15.574 12.7906 15.5773 12.8971 15.5773C14.1198 15.5773 15.2326 15.1325 16.058 14.3072C16.2751 14.09 16.4877 13.6585 16.2671 12.8364C16.1153 12.2709 15.7801 11.6006 15.2977 10.8979C15.2122 10.7734 15.042 10.7417 14.9175 10.8272C14.793 10.9127 14.7614 11.0829 14.8469 11.2074C15.2945 11.8596 15.603 12.4719 15.7388 12.9781C15.8581 13.4229 15.8341 13.7575 15.6712 13.9205C15.425 14.1666 14.8123 14.0932 14.0322 13.7242C13.4488 13.4483 12.8161 13.0323 12.1864 12.5151C12.5574 12.0615 12.585 11.4191 12.2696 10.9373L13.6926 9.51423C13.8164 9.57695 13.9532 9.60961 14.092 9.60958C14.3178 9.60958 14.5437 9.52361 14.7156 9.35173C15.0594 9.00788 15.0594 8.44846 14.7156 8.10464C14.3718 7.76084 13.8123 7.76082 13.4685 8.10464C13.1921 8.38097 13.1381 8.79652 13.3059 9.12754L11.883 10.5505C11.6673 10.4087 11.4149 10.3324 11.1507 10.3324C10.8396 10.3324 10.5447 10.4381 10.3069 10.6323C9.79671 10.0086 9.386 9.38255 9.11276 8.80483C8.74378 8.02466 8.67039 7.41196 8.91651 7.16584C9.28464 6.79766 10.5772 7.12174 12.2473 8.4475C12.3656 8.54137 12.5376 8.52163 12.6315 8.40334C12.7254 8.28505 12.7056 8.11306 12.5873 8.01916C11.7674 7.36827 10.967 6.89629 10.2728 6.65424C9.28147 6.30856 8.77796 6.5312 8.53006 6.77893C7.6328 7.67621 7.18508 8.91322 7.26984 10.2617C7.35376 11.5973 7.9512 12.8841 8.95206 13.8849C9.1279 14.0607 9.31437 14.2256 9.51042 14.3785C9.50971 14.3806 9.5088 14.3826 9.50815 14.3847L8.74693 16.8102H8.09595C7.03939 16.8102 6.17984 17.6698 6.17984 18.7263C6.17984 18.8773 6.30229 18.9997 6.45328 18.9997H13.9404C14.0914 18.9997 14.2138 18.8773 14.2138 18.7263C14.2138 17.6697 13.3543 16.8102 12.2978 16.8102H11.4012V15.3581C11.7841 15.4713 12.1775 15.5422 12.5753 15.5672ZM13.8551 8.49128C13.8862 8.46015 13.9231 8.43546 13.9638 8.41865C14.0044 8.40184 14.048 8.39322 14.092 8.3933C14.1778 8.3933 14.2636 8.42595 14.3289 8.49125C14.4594 8.62184 14.4594 8.83436 14.3289 8.96495C14.1983 9.09555 13.9857 9.09555 13.8551 8.96495C13.7245 8.83439 13.7245 8.62187 13.8551 8.49128ZM11.1507 10.8793C11.3617 10.8793 11.56 10.9613 11.7092 11.1104L11.7097 11.1109C11.9954 11.3969 12.0157 11.8489 11.771 12.1586C11.579 11.9868 11.3917 11.8096 11.2095 11.6274C11.0217 11.4396 10.8393 11.2465 10.6625 11.0483C10.8012 10.9388 10.9713 10.8793 11.1507 10.8793ZM9.97936 14.7095C10.2574 14.8861 10.5501 15.0384 10.8543 15.1646V16.8102H9.32005L9.97936 14.7095ZM12.2977 17.357C12.9591 17.357 13.5125 17.8284 13.6395 18.4529H6.75409C6.88113 17.8284 7.43451 17.357 8.0959 17.357H12.2977ZM9.33873 13.4982C8.43209 12.5916 7.89115 11.43 7.81557 10.2274C7.76545 9.42944 7.92516 8.67768 8.2724 8.03223C8.32988 8.33462 8.44508 8.67221 8.61838 9.03862C9.06458 9.982 9.84748 11.0387 10.8229 12.0141C11.7983 12.9895 12.855 13.7724 13.7984 14.2186C14.1641 14.3916 14.501 14.5066 14.803 14.5642C13.1559 15.4459 10.9024 15.0619 9.33873 13.4982ZM14.0962 6.45947C13.9452 6.45947 13.8227 6.58189 13.8227 6.73291C13.8227 6.88393 13.9452 7.00635 14.0962 7.00635C15.0433 7.00635 15.8138 7.77687 15.8138 8.72397C15.8138 8.87499 15.9362 8.99741 16.0872 8.99741C16.2382 8.99741 16.3607 8.87499 16.3607 8.72397C16.3607 7.47532 15.3448 6.45947 14.0962 6.45947Z" fill="#80B8FF"/>
<path d="M9.33873 13.4982C8.43209 12.5916 7.89115 11.43 7.81557 10.2274C7.76545 9.42944 7.92516 8.67768 8.2724 8.03223C8.32988 8.33462 8.44508 8.67221 8.61838 9.03862C9.06458 9.982 9.84748 11.0387 10.8229 12.0141C11.7983 12.9895 12.855 13.7724 13.7984 14.2186C14.1641 14.3916 14.501 14.5066 14.803 14.5642C13.1559 15.4459 10.9024 15.0619 9.33873 13.4982Z" fill="#80B8FF"/>
<path d="M11.1507 10.8793C11.3617 10.8793 11.56 10.9613 11.7092 11.1104L11.7097 11.1109C11.9954 11.3969 12.0157 11.8489 11.771 12.1586C11.579 11.9868 11.3917 11.8096 11.2095 11.6274C11.0217 11.4396 10.8393 11.2465 10.6625 11.0483C10.8012 10.9388 10.9713 10.8793 11.1507 10.8793Z" fill="#80B8FF"/>
<path d="M13.8551 8.49128C13.8862 8.46015 13.9231 8.43546 13.9638 8.41865C14.0044 8.40184 14.048 8.39322 14.092 8.3933C14.1778 8.3933 14.2636 8.42595 14.3289 8.49125C14.4594 8.62184 14.4594 8.83436 14.3289 8.96495C14.1983 9.09555 13.9857 9.09555 13.8551 8.96495C13.7245 8.83439 13.7245 8.62187 13.8551 8.49128Z" fill="#80B8FF"/>
<path d="M9.97936 14.7095C10.2574 14.8861 10.5501 15.0384 10.8543 15.1646V16.8102H9.32005L9.97936 14.7095Z" fill="#80B8FF"/>
<path d="M12.2977 17.357C12.9591 17.357 13.5125 17.8284 13.6395 18.4529H6.75409C6.88113 17.8284 7.43451 17.357 8.0959 17.357H12.2977Z" fill="#80B8FF"/>
<path d="M14.0959 5C13.9449 5 13.8224 5.12242 13.8224 5.27344C13.8224 5.42446 13.9449 5.54688 14.0959 5.54688C15.8479 5.54688 17.2732 6.97222 17.2732 8.72425C17.2732 8.87527 17.3957 8.99768 17.5467 8.99768C17.6977 8.99768 17.8201 8.87527 17.8201 8.72425C17.8201 6.6707 16.1494 5 14.0959 5Z" fill="#80B8FF"/>
</svg>
