<svg width="24" height="24" viewBox="0 0 24 24" fill="none" xmlns="http://www.w3.org/2000/svg">
<path d="M11.0794 19.9762C11.0691 19.9894 11.0569 20.0016 11.0456 20.0137L11.0306 20.0306L11.0147 20.0447C11.0022 20.057 10.9891 20.0686 10.9753 20.0794C10.9657 20.0877 10.9557 20.0955 10.9453 20.1028L10.9172 20.1234L10.8816 20.145C10.8725 20.1509 10.8631 20.1562 10.8534 20.1609L10.8188 20.1787L10.7869 20.1928L10.7531 20.205C10.7416 20.2099 10.7296 20.214 10.7175 20.2172L10.6838 20.2266C10.6706 20.2266 10.6594 20.2331 10.6462 20.235L10.6069 20.2416L10.5741 20.2462C10.5494 20.2476 10.5247 20.2476 10.5 20.2462H6C5.80109 20.2462 5.61032 20.1672 5.46967 20.0266C5.32902 19.8859 5.25 19.6952 5.25 19.4962C5.25 19.2973 5.32902 19.1066 5.46967 18.9659C5.61032 18.8253 5.80109 18.7462 6 18.7462H8.68969L5.15625 15.2194C4.94686 15.0103 4.78104 14.7618 4.66839 14.4883C4.55574 14.2147 4.4985 13.9215 4.5 13.6256V8.90625C3.79301 8.7237 3.17686 8.28958 2.76705 7.68524C2.35724 7.08091 2.1819 6.34786 2.27391 5.6235C2.36592 4.89914 2.71895 4.2332 3.26683 3.75051C3.8147 3.26782 4.51982 3.00151 5.25 3.00151C5.98018 3.00151 6.6853 3.26782 7.23317 3.75051C7.78105 4.2332 8.13408 4.89914 8.22609 5.6235C8.31809 6.34786 8.14276 7.08091 7.73295 7.68524C7.32314 8.28958 6.70699 8.7237 6 8.90625V13.6294C6.00083 13.827 6.07967 14.0164 6.21937 14.1562L9.75 17.6897V15C9.75 14.8011 9.82902 14.6103 9.96967 14.4697C10.1103 14.329 10.3011 14.25 10.5 14.25C10.6989 14.25 10.8897 14.329 11.0303 14.4697C11.171 14.6103 11.25 14.8011 11.25 15V19.5C11.2514 19.525 11.2514 19.55 11.25 19.575C11.25 19.5853 11.25 19.5947 11.25 19.605C11.25 19.6153 11.25 19.6331 11.2434 19.6481C11.2414 19.6599 11.2386 19.6714 11.235 19.6828C11.235 19.695 11.2294 19.7072 11.2256 19.7194C11.2219 19.7316 11.2181 19.7409 11.2144 19.7522L11.2013 19.7887L11.1872 19.8178C11.1816 19.83 11.1759 19.8431 11.1694 19.8553C11.1628 19.8675 11.1591 19.8722 11.1544 19.8816L11.1319 19.9181L11.1122 19.9444L11.0794 19.9762ZM19.5 15.0937V10.3716C19.5015 10.0757 19.4443 9.78249 19.3316 9.50891C19.219 9.23533 19.0531 8.98683 18.8438 8.77781L15.3103 5.25H18C18.1989 5.25 18.3897 5.17098 18.5303 5.03033C18.671 4.88968 18.75 4.69891 18.75 4.5C18.75 4.30109 18.671 4.11032 18.5303 3.96967C18.3897 3.82902 18.1989 3.75 18 3.75H13.4831H13.4269C13.4138 3.75 13.4006 3.75 13.3884 3.75562H13.3538L13.3134 3.76594L13.2825 3.77344L13.245 3.78656L13.2131 3.79875L13.1803 3.81375L13.1466 3.83062C13.1366 3.83569 13.1269 3.84132 13.1175 3.8475C13.1062 3.85406 13.0941 3.86062 13.0837 3.86812C13.0737 3.87478 13.064 3.88198 13.0547 3.88969C13.0443 3.89666 13.0343 3.90417 13.0247 3.91219C13.0106 3.92344 12.9984 3.93469 12.9853 3.94687L12.9694 3.96094L12.9544 3.97781C12.9431 3.99 12.9309 4.00219 12.9206 4.01531L12.8962 4.04812L12.8766 4.07437L12.8541 4.11094C12.8494 4.12031 12.8438 4.12875 12.8391 4.13719C12.8344 4.14562 12.8269 4.1625 12.8212 4.17469L12.8072 4.20375L12.7941 4.24031C12.7941 4.25156 12.7856 4.26187 12.7828 4.27312C12.78 4.28437 12.7762 4.2975 12.7734 4.30969C12.7698 4.32105 12.767 4.33263 12.765 4.34437C12.765 4.35937 12.765 4.37344 12.7584 4.3875C12.7519 4.40156 12.7584 4.40719 12.7537 4.4175C12.7523 4.44248 12.7523 4.46752 12.7537 4.4925V9C12.7537 9.19891 12.8328 9.38968 12.9734 9.53033C13.1141 9.67098 13.3048 9.75 13.5037 9.75C13.7027 9.75 13.8934 9.67098 14.0341 9.53033C14.1747 9.38968 14.2537 9.19891 14.2537 9V6.31031L17.7806 9.84375C17.8503 9.91345 17.9055 9.99619 17.9431 10.0872C17.9807 10.1783 18.0001 10.2759 18 10.3744V15.0937C17.293 15.2763 16.6769 15.7104 16.267 16.3148C15.8572 16.9191 15.6819 17.6521 15.7739 18.3765C15.8659 19.1009 16.2189 19.7668 16.7668 20.2495C17.3147 20.7322 18.0198 20.9985 18.75 20.9985C19.4802 20.9985 20.1853 20.7322 20.7332 20.2495C21.2811 19.7668 21.6341 19.1009 21.7261 18.3765C21.8181 17.6521 21.6428 16.9191 21.233 16.3148C20.8231 15.7104 20.207 15.2763 19.5 15.0937Z" fill="#D3D3D3"/>
</svg>
