<svg width="20" height="20" viewBox="0 0 20 20" fill="none" xmlns="http://www.w3.org/2000/svg">
<path d="M16.875 10.1687C16.8781 10.0562 16.8781 9.94372 16.875 9.83122L18.0406 8.37497C18.1017 8.29851 18.144 8.20877 18.1641 8.11296C18.1842 8.01716 18.1815 7.91798 18.1562 7.82341C17.9648 7.10525 17.679 6.41564 17.3062 5.77263C17.2574 5.6885 17.1896 5.61694 17.1082 5.56364C17.0268 5.51034 16.9341 5.47677 16.8375 5.4656L14.9844 5.25935C14.9073 5.1781 14.8292 5.09997 14.75 5.02497L14.5312 3.16716C14.52 3.07045 14.4863 2.97771 14.4329 2.89633C14.3794 2.81494 14.3077 2.74717 14.2234 2.69841C13.5805 2.32595 12.8908 2.04064 12.1727 1.84997C12.0781 1.82471 11.9789 1.82201 11.8831 1.84209C11.7873 1.86218 11.6976 1.90448 11.6211 1.9656L10.1687 3.12497C10.0562 3.12497 9.94375 3.12497 9.83125 3.12497L8.375 1.96169C8.29854 1.90057 8.20879 1.85827 8.11299 1.83819C8.01719 1.8181 7.91801 1.8208 7.82344 1.84607C7.10527 2.0375 6.41567 2.32332 5.77266 2.69607C5.68853 2.74492 5.61697 2.81273 5.56366 2.89411C5.51036 2.97548 5.47679 3.06818 5.46562 3.16482L5.25937 5.02107C5.17812 5.09867 5.1 5.1768 5.025 5.25544L3.16719 5.46872C3.07048 5.47998 2.97773 5.51367 2.89635 5.56711C2.81497 5.62055 2.7472 5.69226 2.69844 5.77654C2.32605 6.41963 2.04049 7.10923 1.84922 7.82732C1.82406 7.92195 1.82149 8.02116 1.84171 8.11697C1.86193 8.21277 1.90437 8.30249 1.96562 8.37888L3.125 9.83122C3.125 9.94372 3.125 10.0562 3.125 10.1687L1.96172 11.625C1.9006 11.7014 1.85829 11.7912 1.83821 11.887C1.81813 11.9828 1.82083 12.082 1.84609 12.1765C2.03752 12.8947 2.32335 13.5843 2.69609 14.2273C2.74494 14.3114 2.81275 14.383 2.89413 14.4363C2.97551 14.4896 3.06821 14.5232 3.16484 14.5343L5.01797 14.7406C5.09557 14.8218 5.1737 14.9 5.25234 14.975L5.46875 16.8328C5.48 16.9295 5.51369 17.0222 5.56713 17.1036C5.62057 17.185 5.69229 17.2528 5.77656 17.3015C6.41966 17.6739 7.10925 17.9595 7.82734 18.1508C7.92197 18.1759 8.02119 18.1785 8.11699 18.1583C8.2128 18.138 8.30251 18.0956 8.37891 18.0343L9.83125 16.875C9.94375 16.8781 10.0562 16.8781 10.1687 16.875L11.625 18.0406C11.7015 18.1017 11.7912 18.144 11.887 18.1641C11.9828 18.1842 12.082 18.1815 12.1766 18.1562C12.8948 17.9651 13.5845 17.6793 14.2273 17.3062C14.3115 17.2574 14.383 17.1896 14.4363 17.1082C14.4896 17.0268 14.5232 16.9341 14.5344 16.8375L14.7406 14.9843C14.8219 14.9073 14.9 14.8291 14.975 14.75L16.8328 14.5312C16.9295 14.52 17.0223 14.4863 17.1036 14.4328C17.185 14.3794 17.2528 14.3077 17.3016 14.2234C17.6739 13.5803 17.9595 12.8907 18.1508 12.1726C18.1759 12.078 18.1785 11.9788 18.1583 11.883C18.1381 11.7872 18.0956 11.6975 18.0344 11.6211L16.875 10.1687ZM10 13.125C9.38193 13.125 8.77775 12.9417 8.26384 12.5983C7.74994 12.2549 7.3494 11.7669 7.11288 11.1959C6.87635 10.6248 6.81447 9.99651 6.93505 9.39032C7.05562 8.78413 7.35325 8.22731 7.79029 7.79027C8.22733 7.35323 8.78415 7.0556 9.39034 6.93502C9.99653 6.81444 10.6249 6.87633 11.1959 7.11285C11.7669 7.34937 12.255 7.74991 12.5983 8.26382C12.9417 8.77772 13.125 9.38191 13.125 9.99997C13.125 10.8288 12.7958 11.6236 12.2097 12.2097C11.6237 12.7957 10.8288 13.125 10 13.125Z" fill="#8A8A8A"/>
</svg>
