<svg width="20" height="20" viewBox="0 0 20 20" fill="none" xmlns="http://www.w3.org/2000/svg">
<path d="M18.0414 17.1875C17.9865 17.2825 17.9076 17.3614 17.8126 17.4163C17.7175 17.4711 17.6097 17.5 17.5 17.5H2.5C2.39034 17.4999 2.28265 17.4709 2.18772 17.416C2.0928 17.3611 2.01399 17.2822 1.95921 17.1872C1.90444 17.0922 1.87561 16.9845 1.87564 16.8748C1.87567 16.7652 1.90455 16.6575 1.95938 16.5625C3.14922 14.5055 4.98281 13.0305 7.12266 12.3312C6.06419 11.7011 5.24183 10.741 4.78187 9.59827C4.3219 8.45554 4.24975 7.19343 4.57652 6.00574C4.90328 4.81805 5.61088 3.77045 6.59064 3.02384C7.57041 2.27722 8.76818 1.87286 10 1.87286C11.2318 1.87286 12.4296 2.27722 13.4094 3.02384C14.3891 3.77045 15.0967 4.81805 15.4235 6.00574C15.7502 7.19343 15.6781 8.45554 15.2181 9.59827C14.7582 10.741 13.9358 11.7011 12.8773 12.3312C15.0172 13.0305 16.8508 14.5055 18.0406 16.5625C18.0956 16.6574 18.1246 16.7652 18.1248 16.8749C18.1249 16.9846 18.0961 17.0924 18.0414 17.1875Z" fill="#8A8A8A"/>
</svg>
