<svg width="30" height="30" viewBox="0 0 30 30" fill="none" xmlns="http://www.w3.org/2000/svg">
<g clip-path="url(#clip0_2694_88279)">
<path d="M17.2241 7.09033C18.7731 7.47121 19.8744 8.61324 20.1977 10.0646" stroke="#E7FF25" stroke-width="1.875" stroke-linecap="square"/>
<path d="M18.6133 3.73633C21.0164 4.28967 22.9743 6.1251 23.6184 8.66468" stroke="#E7FF25" stroke-width="1.875" stroke-linecap="square"/>
<path d="M8.41324 3.64292C6.51343 5.60365 5.47034 8.23876 5.51341 10.9686C5.55649 13.6984 6.68222 16.2993 8.64295 18.1991C10.6037 20.0989 13.2388 21.142 15.9686 21.0989C18.6984 21.0558 21.2993 19.9301 23.1991 17.9694L15.8062 10.8061L8.41324 3.64292Z" fill="#E7FF25" stroke="#E7FF25" stroke-width="1.875" stroke-linecap="square"/>
<path d="M9.375 18.75L11.25 20L13.125 20.625L14.8523 21.4062L17.8284 26.5625H5.92163L9.375 18.75Z" fill="#E7FF25" stroke="#E7FF25" stroke-width="1.875" stroke-linecap="square"/>
</g>
<defs>
<clipPath id="clip0_2694_88279">
<rect width="30" height="30" fill="white"/>
</clipPath>
</defs>
</svg>
