<svg width="36" height="36" viewBox="0 0 36 36" fill="none" xmlns="http://www.w3.org/2000/svg">
<path d="M8.89624 26.0573C3.837 20.7872 3.837 12.2437 8.89624 6.97363" stroke="black" stroke-width="2" stroke-linecap="square"/>
<path d="M12.4212 20.7957C10.3309 18.138 10.4668 14.2208 12.8556 11.7471" stroke="black" stroke-width="2" stroke-linecap="square"/>
<path d="M23.2764 11.7461C25.6511 14.2198 25.787 18.137 23.7107 20.7947" stroke="black" stroke-width="2" stroke-linecap="square"/>
<path d="M27.2278 6.97217C32.2871 12.2422 32.2871 20.7858 27.2278 26.0558" stroke="black" stroke-width="2" stroke-linecap="square"/>
<path fill-rule="evenodd" clip-rule="evenodd" d="M20.0093 16.515C20.0093 17.6358 19.1379 18.5421 18.0632 18.5421C16.9872 18.5421 16.1157 17.6358 16.1157 16.515C16.1157 15.3955 16.9872 14.4878 18.0632 14.4878C19.1379 14.4878 20.0093 15.3955 20.0093 16.515Z" stroke="black" stroke-width="2" stroke-linecap="round" stroke-linejoin="round"/>
<path d="M21.9161 29.0275L18.0618 18.5371L14.2061 29.0275" stroke="black" stroke-width="2" stroke-linecap="square" stroke-linejoin="bevel"/>
</svg>
