<svg width="24" height="24" viewBox="0 0 24 24" fill="none" xmlns="http://www.w3.org/2000/svg">
<path d="M9.5 9.5H14.5M9.5 9.5V14.5M9.5 9.5L7 7M14.5 9.5V14.5M14.5 9.5L17 7M14.5 14.5H9.5M14.5 14.5L17 17M9.5 14.5L7 17" stroke="white" stroke-width="1.5" stroke-linecap="square"/>
<path d="M10 6.5C10 5.80777 9.79473 5.13108 9.41014 4.5555C9.02556 3.97993 8.47893 3.53133 7.83939 3.26642C7.19985 3.00151 6.49612 2.9322 5.81718 3.06725C5.13825 3.2023 4.51461 3.53564 4.02513 4.02513C3.53564 4.51461 3.2023 5.13825 3.06725 5.81718C2.9322 6.49612 3.00151 7.19985 3.26642 7.83939C3.53133 8.47893 3.97993 9.02556 4.5555 9.41014C5.13108 9.79473 5.80777 10 6.5 10" stroke="white" stroke-width="1.5" stroke-linecap="square"/>
<path d="M14 6.5C14 5.80777 14.2053 5.13108 14.5899 4.5555C14.9744 3.97993 15.5211 3.53133 16.1606 3.26642C16.8001 3.00151 17.5039 2.9322 18.1828 3.06725C18.8617 3.2023 19.4854 3.53564 19.9749 4.02513C20.4644 4.51461 20.7977 5.13825 20.9327 5.81718C21.0678 6.49612 20.9985 7.19985 20.7336 7.83939C20.4687 8.47893 20.0201 9.02556 19.4445 9.41014C18.8689 9.79473 18.1922 10 17.5 10" stroke="white" stroke-width="1.5" stroke-linecap="square"/>
<path d="M10 17.5C10 18.1922 9.79473 18.8689 9.41014 19.4445C9.02556 20.0201 8.47893 20.4687 7.83939 20.7336C7.19985 20.9985 6.49612 21.0678 5.81718 20.9327C5.13825 20.7977 4.51461 20.4644 4.02513 19.9749C3.53564 19.4854 3.2023 18.8617 3.06725 18.1828C2.9322 17.5039 3.00151 16.8001 3.26642 16.1606C3.53133 15.5211 3.97993 14.9744 4.5555 14.5899C5.13108 14.2053 5.80777 14 6.5 14" stroke="white" stroke-width="1.5" stroke-linecap="square"/>
<path d="M14 17.5C14 18.1922 14.2053 18.8689 14.5899 19.4445C14.9744 20.0201 15.5211 20.4687 16.1606 20.7336C16.8001 20.9985 17.5039 21.0678 18.1828 20.9327C18.8617 20.7977 19.4854 20.4644 19.9749 19.9749C20.4644 19.4854 20.7977 18.8617 20.9327 18.1828C21.0678 17.5039 20.9985 16.8001 20.7336 16.1606C20.4687 15.5211 20.0201 14.9744 19.4445 14.5899C18.8689 14.2053 18.1922 14 17.5 14" stroke="white" stroke-width="1.5" stroke-linecap="square"/>
<rect x="5" y="16" width="3" height="3" rx="1.5" fill="white"/>
<rect x="16" y="16" width="3" height="3" rx="1.5" fill="white"/>
<rect x="16" y="5" width="3" height="3" rx="1.5" fill="white"/>
<rect x="5" y="5" width="3" height="3" rx="1.5" fill="white"/>
</svg>
