<svg width="24" height="24" viewBox="0 0 24 24" fill="none" xmlns="http://www.w3.org/2000/svg">
<path d="M5.93086 17.3718C2.55804 13.8584 2.55804 8.16277 5.93086 4.64941" stroke="#E7FF25" stroke-width="1.5" stroke-linecap="square"/>
<path d="M8.28083 13.8639C6.88724 12.0921 6.97784 9.48071 8.57038 7.83154" stroke="#E7FF25" stroke-width="1.5" stroke-linecap="square"/>
<path d="M15.5176 7.83057C17.1007 9.47974 17.1913 12.0912 15.8071 13.863" stroke="#E7FF25" stroke-width="1.5" stroke-linecap="square"/>
<path d="M18.1519 4.64795C21.5247 8.16131 21.5247 13.8571 18.1519 17.3704" stroke="#E7FF25" stroke-width="1.5" stroke-linecap="square"/>
<path fill-rule="evenodd" clip-rule="evenodd" d="M13.3395 11.0101C13.3395 11.7573 12.7585 12.3615 12.0421 12.3615C11.3248 12.3615 10.7438 11.7573 10.7438 11.0101C10.7438 10.2638 11.3248 9.65869 12.0421 9.65869C12.7585 9.65869 13.3395 10.2638 13.3395 11.0101Z" stroke="#E7FF25" stroke-width="1.5" stroke-linecap="round" stroke-linejoin="round"/>
<path d="M14.6106 19.352L12.041 12.3584L9.47058 19.352" stroke="#E7FF25" stroke-width="1.5" stroke-linecap="square" stroke-linejoin="bevel"/>
</svg>
