<svg width="30" height="30" viewBox="0 0 30 30" fill="none" xmlns="http://www.w3.org/2000/svg">
<g clip-path="url(#clip0_2694_87832)">
<path d="M23.8388 23.8389C18.9572 28.7204 11.0427 28.7204 6.16113 23.8389" stroke="#E7FF25" stroke-width="1.875"/>
<path d="M27.5 15C27.5 21.9036 21.9036 27.5 15 27.5" stroke="#E7FF25" stroke-width="1.875"/>
<path d="M6.16118 23.8388C1.27962 18.9572 1.27962 11.0427 6.16118 6.16111C11.0427 1.27956 18.9573 1.27956 23.8388 6.16111L24.375 6.87496" stroke="#E7FF25" stroke-width="1.875"/>
<path d="M15 22.5C10.8579 22.5 7.5 19.1421 7.5 15C7.5 10.8579 10.8579 7.5 15 7.5" stroke="#E7FF25" stroke-width="1.875"/>
<path d="M15 22.5C19.1421 22.5 22.5 19.1421 22.5 15" stroke="#E7FF25" stroke-width="1.875"/>
<path d="M9.6967 20.3035C6.76777 17.3745 6.76777 12.6258 9.6967 9.69686C12.6256 6.76792 17.3744 6.76792 20.3033 9.69686" stroke="#E7FF25" stroke-width="1.875"/>
<path d="M9.69662 20.3032C12.6256 23.2322 17.3743 23.2322 20.3032 20.3032" stroke="#E7FF25" stroke-width="1.875"/>
<circle cx="15" cy="15" r="1.5625" stroke="#E7FF25" stroke-width="1.875"/>
<path d="M16.25 13.75L25 6.25" stroke="#E7FF25" stroke-width="1.875"/>
</g>
<defs>
<clipPath id="clip0_2694_87832">
<rect width="30" height="30" fill="white"/>
</clipPath>
</defs>
</svg>
